<?xml version="1.0" encoding="utf-8" ?>
<svg xmlns="http://www.w3.org/2000/svg" xmlns:xlink="http://www.w3.org/1999/xlink" width="574" height="574">
	<path fill="#FEFEFE" transform="matrix(0.560547 0 0 0.560547 0 -6.10352e-05)" d="M-0 -0L1024 0L1024 1024L-0 1024L0 -0Z"/>
	<path transform="matrix(0.560547 0 0 0.560547 0 -6.10352e-05)" d="M610.683 293.712C609.748 306.853 601.487 319.121 594.127 329.596C582.18 346.6 568.396 361.836 554.014 376.791C552.455 376.24 550.846 374.486 549.571 373.404C545.013 369.535 540.892 365.324 536.721 361.049C534.221 364.243 531.525 367.154 528.75 370.108C527.67 371.257 525.568 373.06 524.946 374.464C524.123 376.321 524.147 380.501 523.935 382.584C515.259 380.438 509.281 381.082 500.683 383.27C500.607 381.333 500.907 377.696 500.394 375.921C500.115 374.954 498.747 373.419 498.099 372.534L489.229 361.405L470.128 376.859C465.449 373.007 461.162 368.161 457.016 363.733C445.134 351.042 434.819 338.349 425.966 323.352C424.794 321.272 420.858 315.171 421.25 313.272C430.499 328.414 444.791 342.703 458.253 354.032C462.115 357.282 465.975 360.76 470.358 363.297C475 359.986 479.268 356.145 483.629 352.478L511.823 327.153C512.623 327.129 512.222 327.016 512.941 327.686L553.14 363.591C569.37 351.478 583.365 337.335 595.239 320.906C601.274 312.557 606.995 303.358 610.683 293.712Z"/>
	<path fill="#FEFEFE" transform="matrix(0.560547 0 0 0.560547 0 -6.10352e-05)" d="M513.592 345.75C516.15 345.113 519.748 345.463 522.434 345.427L523.155 361.226C520.877 359.214 518.745 357.006 517.041 354.479C515.448 352.117 513.029 348.656 513.592 345.75Z"/>
	<path fill="#FEFEFE" transform="matrix(0.560547 0 0 0.560547 0 -6.10352e-05)" d="M501.972 345.474L512.49 345.573C510.924 349.385 509.396 352.458 506.899 355.763L501.804 362.151L501.972 345.474Z"/>
	<path transform="matrix(0.560547 0 0 0.560547 0 -6.10352e-05)" d="M657.871 348.277L641.699 330.75C643.171 328.758 648.119 326.656 650.371 325.243C656.526 321.378 662.35 316.916 668.713 313.394C683.363 305.285 699.185 298.829 714.419 291.878L759.437 269.807L803.49 244.476C829.167 228.66 853.825 210.173 876.692 190.529C892.409 177.028 907.824 162.788 921.303 147.017C922.777 159.995 924.34 173.474 923.357 186.532C921.945 205.298 913.809 223.49 902.155 238.08C892.661 249.965 880.792 261.411 868.104 269.833C858.675 276.092 848.801 280.857 838.558 285.573C844.816 284.708 851 282.816 857.016 280.917C879.913 273.689 899.26 261.055 917.693 245.99C924.763 240.213 931.859 234.256 938.32 227.806C941.097 260.407 933.456 294.598 911.898 320.006C897.222 337.304 878.656 348.671 857.7 357.045L843.794 362.039C851.951 361.455 860.08 359.563 868 357.603C886.977 352.907 905.853 346.544 922.09 335.444C921.107 343.548 920.043 351.585 917.832 359.469C912.356 379.001 901.344 395.73 885.36 408.258C871.343 419.244 851.83 427.126 834.723 431.613L816.972 435.455C843.441 435.966 871.052 430.55 895.103 419.522C889.601 444.64 874.361 470.415 852.459 484.609C831.182 498.398 803.288 501.359 778.547 501.677C800.497 507.427 826.883 506.367 848.119 498.63C838.919 520.319 823.4 543.117 800.938 552.251C787.088 557.882 772.757 559.796 757.901 559.112L751 558.535C749.975 558.401 748.409 557.968 747.414 558.211C763.506 563.184 781.741 568.126 798.642 564.552L798.866 564.674C787.76 578.85 773.036 592.894 754.469 595.329C744.408 596.648 732.962 594.449 723.285 591.733C720.108 590.842 716.632 589.301 713.418 588.768C725.866 595.485 738.809 602.334 753.48 600.401C740.824 611.312 725.349 619.187 708.656 621.205C699.788 622.277 691.365 618.822 683.425 615.413C686.622 621.122 692.732 623.453 698.547 625.47C692.116 630.107 684.47 635.747 676.032 634.25C671.195 633.392 665.112 630.908 662.29 626.766L658.591 620.31C662.425 616.86 665.771 613.114 669.084 609.178C670.518 607.475 672.302 605.675 673.376 603.722C673.539 603.679 673.631 603.502 673.743 603.377C679.322 597.172 683.919 589.493 688.004 582.25C704.747 552.564 713.113 518.292 711.297 484.115C709.121 443.158 696.257 405.022 674.436 370.414C669.833 363.114 664.327 354.074 657.871 348.277Z"/>
	<path transform="matrix(0.560547 0 0 0.560547 0 -6.10352e-05)" d="M358.142 611.73L365.992 620.123C365.376 621.813 364.605 623.53 363.56 625C360.586 629.186 355.566 632.085 350.557 633.009C341.764 634.632 332.444 629.274 325.441 624.467C331.865 621.774 334.934 619.888 338.797 614.069C336.315 614.85 334.078 616.347 331.75 617.496C328.018 619.339 324.137 620.849 320 621.457C302.658 624.008 287.023 614.084 273.808 604.073C285.932 603.045 296.798 597.844 306.688 590.815C296.713 594.408 287.068 596.985 276.319 596.425C255.898 595.363 237.177 580.503 224.073 566.009C237.697 566.656 250.818 565.057 263.984 561.514C267.751 560.5 271.742 559.582 275.291 557.94C269.769 558.536 264.321 559.308 258.75 559.364C249.733 559.455 239.993 557.45 231.5 554.523C205.905 545.704 186.07 526.157 174.295 502.135C179.621 504.036 184.922 504.85 190.5 505.627C208.174 508.09 226.467 506.288 243.42 500.803C242.446 500.724 241.638 500.717 240.665 500.866C218.297 504.295 193.823 497.47 174.831 485.752C151.07 471.091 134.162 445.424 127.799 418.474C149.645 433.162 181.782 435.986 207.474 434.771L207.563 434.25C181.292 431.939 154.429 421.317 134.428 404.006C114.723 386.951 102.624 360.76 100.8 334.88C117.1 347.127 137.834 353.79 157.666 357.704C162.013 358.562 166.833 359.74 171.25 359.758C166.677 357.447 161.266 356.225 156.514 354.057C141.257 347.095 125.146 336.204 114.129 323.362C91.112 296.531 83.1825 261.936 85.8312 227.276C91.4827 233.522 97.8211 238.971 104.269 244.369C123.839 260.755 146.625 274.427 170.851 282.673C176.289 284.524 181.84 286.513 187.572 287.195C159.599 275.842 133.345 255.333 115.841 230.738C98.4447 206.294 97.6575 175.474 102.449 146.964C110.369 157.553 119.91 166.706 129.508 175.751C142.454 187.951 156.244 198.82 170.455 209.487C197.805 230.016 227 248.566 256.991 265.001L319.172 296.374L361.732 316.297L377.647 323.788C380.606 325.238 383.778 326.606 386.44 328.557L386.806 328.835C390.472 325.391 394.588 321.889 397.71 317.949C404.898 308.879 408.445 295.866 412.701 285.219L416.937 350.438C424.173 398.573 445.849 446.48 477.011 483.85C482.204 490.079 487.521 497.374 494.054 502.207C494.853 497.682 494.762 492.736 495.024 488.134L496.411 463.643L500.155 385.352C508.08 387.643 516.292 386.707 524.3 385.388L531.631 500.656C540.279 492.331 547.758 482.453 554.685 472.677C581.167 435.303 600.049 390.951 607.569 345.711C609.374 334.856 610.756 323.923 611.259 312.923C611.566 306.204 611.263 299.459 611.777 292.75L611.174 292.5C611.65 290.545 611.581 289.025 611.386 287.031C609.579 287.124 605.99 290.291 604.298 291.349C597.111 295.846 589.814 299.918 582.021 303.295C569.326 308.796 556.059 313.78 542.73 317.511L512.868 325.4C477.612 316.456 442.422 307.154 413.185 284.406L418.668 249.522C415.307 248.351 412.116 246.592 409.075 244.757C394.846 236.172 384.731 222.198 380.873 206.08C376.572 188.107 380.598 170.545 391.163 155.655C393.642 152.16 397.469 149.289 399.621 145.785C389.832 141.903 384.576 137.65 377.56 129.859C382.821 130.753 387.53 131.123 392.888 130.996C390.967 130.037 388.763 129.951 386.731 129.288C380.159 127.143 374.152 122.788 369.927 117.349C363.494 109.07 362.661 100.511 363.843 90.4107C366.344 93.1689 368.84 96.9567 372.75 97.453C374.102 95.7324 373.259 92.337 373.205 90.0812C373.119 86.4951 373.187 82.7063 373.834 79.1743C374.944 73.1096 377.315 67.9889 380.889 63.0127C381.124 65.0411 381.322 67.1323 381.866 69.1048C384.352 78.1172 391.091 84.2884 398.996 88.75C405.557 92.4534 412.862 94.9236 419.902 97.545C422.188 98.396 425.619 100.052 428.02 100.094C428.817 100.108 430.15 99.0557 430.848 98.6205C433.576 96.9203 436.302 95.1137 439.16 93.642C446.471 89.8776 454.276 86.944 462.185 84.7314C472.317 81.8968 482.8 80.3714 493.25 79.3703C528.627 75.9816 565.591 81.7422 596.746 99.3108C605.812 97.0589 614.641 93.807 622.978 89.5847C633.813 84.0972 642.661 76.2982 646.538 64.5592C650.327 70.3679 651.894 76.8313 652.084 83.7234C652.164 86.636 651.824 89.6018 651.974 92.5C652.048 93.9369 652.418 94.2292 653.5 95.1136C657.407 94.1946 659.886 91.3746 662.724 88.7189C663.823 96.902 662.78 104.849 658.966 112.227C653.528 122.747 644.996 127.667 634.047 131.142C639.668 131.868 644.029 131.143 649.238 128.966C648.638 130.652 646.931 132.556 645.746 133.907C640.724 139.633 634.993 143.037 628.28 146.454C633.041 151.417 636.39 157.26 639.459 163.367C646.599 177.573 647.623 195.905 642.61 210.931C636.346 229.705 623.54 241.283 606.221 249.971C606.699 258.109 608.286 266.477 609.869 274.472C613.172 291.154 616.888 307.298 628.195 320.649C632.342 325.545 637.856 329.117 642.387 333.634C648.994 340.221 654.583 348.575 660.289 355.963L660.542 356.382C666.151 365.543 672.409 374.076 677.356 383.692C700.866 429.387 711.203 484.161 699.167 534.622C693.616 557.894 684.231 579.374 671.055 599.311L662.788 611.075C661.286 613.068 659.135 615.285 657.985 617.441C657.625 617.799 657.334 618.329 657.046 618.75C657.782 622.664 659.69 626.572 661.176 630.266L668.521 648C678.619 670.494 691.081 692.124 704.571 712.744C729.937 751.518 760.023 787.158 793.877 818.809C780.678 814.935 767.602 811.058 754.815 805.924C699.424 783.686 653.266 745.72 615.629 699.933C615.122 711.589 613.387 723.409 612.026 735C607.007 777.762 598.526 820.511 587.405 862.109L574.256 906.595C584.162 904.989 594.596 906.483 603.456 911.244C617.297 918.682 624.836 934.106 629.053 948.532C617.89 939.078 607.074 929.815 592.617 926.077C592.212 927.456 592.606 929.735 592.692 931.202C593.292 941.36 593.236 950.888 591.902 961.034C584.933 948.877 577.274 935.364 564.599 928.495C562.141 929.377 559.763 931.482 557.921 933.285C550.742 940.312 545.926 950.538 541.501 959.482C538.877 949.232 535.525 934.096 539.372 923.859C542.489 915.563 551.111 910.326 558.741 906.696L532.887 757.795C527.177 759.84 521.186 762.34 515.11 762.928C506.877 763.725 498.801 760.576 491.151 757.946L477.16 848.139L466.752 898.755C466.527 899.975 465.052 906.16 465.638 907.013C465.95 907.466 469.802 908.953 470.561 909.379C475.305 912.038 480.618 916.055 483.43 920.75C489.607 931.064 486.553 948.15 483.647 959.205C479.554 950.548 474.558 940.615 467.81 933.69C465.856 931.686 463.188 929.093 460.25 929.061C448.448 934.13 440.989 949.93 435.318 960.776C431.807 949.4 430.933 938.444 431.131 926.629C417.305 929.947 406.143 939.579 395.946 949.126C398.793 937.152 404.942 923.639 414.338 915.412C424.646 906.386 436.584 905.632 449.664 906.598C427.565 839.417 415.18 769.689 408.512 699.403C399.451 711.06 390.261 722.334 379.808 732.794C338.253 774.376 285.19 801.897 229.104 818.143C238.271 810.647 246.784 802.097 255.071 793.648C303.499 744.273 341.787 683.185 368.057 619.338L365.9 616.889C360.833 609.057 354.538 601.93 349.417 594.046C332.848 568.538 323.916 539.81 321.577 509.59C317.325 454.668 334.044 398.358 366.049 353.732C371.884 345.596 378.745 338.348 385.236 330.75L384.75 330.374L367.326 347.659C360.628 355.143 354.88 363.486 349.508 371.951C333.003 397.96 322.036 426.535 316.49 456.842C313.71 472.035 312.165 487.908 313.089 503.362C313.748 514.393 315.774 525.292 318.346 536.02C324.164 560.295 333.139 582.094 349.105 601.538C351.941 604.992 354.798 608.761 358.142 611.73Z"/>
	<path fill="#FEFEFE" transform="matrix(0.560547 0 0 0.560547 0 -6.10352e-05)" d="M633.245 451.75C635.066 455.204 635.565 460.853 636.387 464.676C642.639 493.746 643.012 521.264 640.171 550.75L639.873 551.5C639.606 550.51 639.63 550.987 639.779 549.955C641.057 541.062 640.627 531.238 640.556 522.25C640.534 519.336 640.171 516.196 640.441 513.318C640.576 511.883 640.017 511.18 640.055 509.828C640.22 504.001 639.471 497.834 638.853 492.042L633.245 451.75Z"/>
	<path fill="#FEFEFE" transform="matrix(0.560547 0 0 0.560547 0 -6.10352e-05)" d="M392.726 437.75C392.606 441.271 391.448 444.866 390.805 448.318L386.838 470.5C383.073 493.24 383.099 518.025 384.52 541L386.377 560.861L386.067 559.75C383.909 551.738 383.144 543.131 382.49 534.86C379.991 503.238 383.43 472.138 391.623 441.5L392.726 437.75Z"/>
	<path fill="#FEFEFE" transform="matrix(0.560547 0 0 0.560547 0 -6.10352e-05)" d="M506.596 207.092C510.14 206.745 513.806 206.75 517.328 207.282L518.25 207.427L519.984 207.676C528.192 209.069 534.001 214.119 538.743 220.659L514.589 267.744L512.341 271.486C511.456 270.977 510.821 269.123 510.344 268.206L505.545 259.003L484.955 220.666L485.188 220.009C488.898 212.96 499.203 208.53 506.596 207.092Z"/>
	<path fill="#FEFEFE" transform="matrix(0.560547 0 0 0.560547 0 -6.10352e-05)" d="M438.259 141.165C450.095 139.746 461.418 142.963 471.058 149.834C481.842 157.522 488.888 169.179 490.95 182.201C493.064 195.549 489.226 208.847 481.224 219.596C472.815 230.89 460.938 237.385 447.235 239.471C442.42 239.659 437.117 239.915 432.41 238.818L429.93 238.231C417.485 235.245 407.42 227.151 400.836 216.302C394.656 206.119 391.225 192.209 394.207 180.446L394.454 179.5C396.142 172.873 399.052 166.561 403.2 161.106C412.071 149.438 423.902 143.122 438.259 141.165Z"/>
	<path transform="matrix(0.560547 0 0 0.560547 0 -6.10352e-05)" d="M439.684 154.604C447.71 153.683 455.893 155.583 462.712 159.91C470.498 164.851 475.464 172.611 477.45 181.549L477.655 182.5L478.164 184.973C479.701 194.321 477.412 204.857 471.676 212.461C465.214 221.028 457.139 225.4 446.642 226.975C438.264 227.198 430.949 225.863 423.75 221.33C416.261 216.614 410.02 208.396 408.145 199.7C406.103 190.223 407.466 179.414 412.865 171.252C419.184 161.699 428.673 156.764 439.684 154.604Z"/>
	<path fill="#FEFEFE" transform="matrix(0.560547 0 0 0.560547 0 -6.10352e-05)" d="M444.278 171.656C446.889 171.811 449.603 172.383 452 173.441C455.449 174.964 457.872 177.681 459.115 181.245C460.361 184.819 460.207 188.874 458.431 192.25C456.106 196.667 452.129 198.872 447.526 200.182C444.386 200.2 441.551 200.136 438.75 198.515C435.274 196.504 432.242 192.974 431.406 188.989C430.631 185.293 431.067 181.171 433.306 178.019C436.116 174.063 439.693 172.489 444.278 171.656Z"/>
	<path fill="#FEFEFE" transform="matrix(0.560547 0 0 0.560547 0 -6.10352e-05)" d="M578.183 140.699C588.352 140.012 600.269 142.971 608.734 148.74C619.9 156.349 629.21 168.363 631.654 181.873C634.002 194.853 631.369 208.259 623.641 219.024C615.041 231.003 603.483 238.096 588.97 240.463C583.973 240.76 578.539 240.933 573.643 239.782C565.835 237.945 558.768 235.151 552.529 229.977C541.287 220.656 534.424 208.064 533.105 193.532C531.919 180.473 535.754 168.115 544.106 158.078C553.093 147.277 564.287 141.96 578.183 140.699Z"/>
	<path transform="matrix(0.560547 0 0 0.560547 0 -6.10352e-05)" d="M575.71 154.116C583.569 153.081 592.511 155.139 599.202 159.304C607.279 164.332 614.01 172.919 616.013 182.292C618.111 192.103 616.359 202.383 610.791 210.726C605.034 219.35 596.674 224.414 586.621 226.394C577.251 227.329 568.781 226.062 560.874 220.709C552.926 215.328 547.878 207.009 546.166 197.613C544.309 187.418 546.385 177.041 552.293 168.518C557.906 160.422 566.144 155.863 575.71 154.116Z"/>
	<path fill="#FEFEFE" transform="matrix(0.560547 0 0 0.560547 0 -6.10352e-05)" d="M577.267 172.548C580.571 172.41 583.332 172.284 586.332 173.972C589.674 175.852 592.376 178.826 593.333 182.596C594.171 185.895 593.565 189.888 591.847 192.785C589.578 196.613 586.416 198.35 582.283 199.479C579.601 199.587 577.059 199.77 574.516 198.743C571.27 197.433 568.496 194.718 567.139 191.486C565.673 187.996 565.498 183.788 567.128 180.327C569.2 175.929 572.917 174.032 577.267 172.548Z"/>
</svg>
